<svg xmlns="http://www.w3.org/2000/svg" width="210mm" height="210mm" viewBox="0 0 210 210"><path d="M73.067 116.623L63.03 99.24l-32.295 55.936h20.072z" fill="#06f"/><path d="M117.585 116.623L127.62 99.24H63.03l10.036 17.383z" fill="#003688"/><path d="M94.962 9.168L.992 171.928h84.662l-10.036-17.382H31.1L63.03 99.24h64.59l-10.036-17.383H73.067l41.967-72.69zm20.073 145.377l-10.036 17.383h64.59l-10.036-17.383z" fill="#84b5ff"/><path d="M92.776 115.992H72.704L105 171.928l10.036-17.383z" fill="#06f"/><path d="M11.028 189.311h187.94l-10.036-17.383-32.294-55.936-10.036 17.382 22.259 38.554h-63.862l-32.295-55.936-10.036 17.382 22.26 38.554H.992zm115.865-90.072h20.072L114.67 43.303l-10.036 17.382z" fill="#003688"/><path d="M104.634 137.792l10.036 17.383 32.295-55.936h-20.072z" fill="#84b5ff"/><path d="M209.004 171.928l-93.97-162.76-10.036 17.382-32.295 55.936h20.072l22.259-38.553 31.93 55.306-32.294 55.936h20.071l22.26-38.554 41.967 72.69z" fill="#06f"/></svg>